<svg width="24" height="24" viewBox="0 0 24 24" fill="none" xmlns="http://www.w3.org/2000/svg">
<path fill-rule="evenodd" clip-rule="evenodd" d="M4 4.66177C4 4.29629 4.29628 4 4.66176 4H10.8382C11.2037 4 11.5 4.29629 11.5 4.66177V10.8382C11.5 11.2037 11.2037 11.5 10.8382 11.5H4.66176C4.29628 11.5 4 11.2037 4 10.8382V4.66177ZM5.32353 5.32353V10.1765H10.1765V5.32353H5.32353Z" fill="black"/>
<path fill-rule="evenodd" clip-rule="evenodd" d="M13.375 4.66177C13.375 4.29629 13.6713 4 14.0368 4H20.2132C20.5787 4 20.875 4.29629 20.875 4.66177V10.8382C20.875 11.2037 20.5787 11.5 20.2132 11.5H14.0368C13.6713 11.5 13.375 11.2037 13.375 10.8382V4.66177ZM14.6985 5.32353V10.1765H19.5515V5.32353H14.6985Z" fill="black"/>
<path fill-rule="evenodd" clip-rule="evenodd" d="M13.375 14.0313C13.375 13.6659 13.6713 13.3696 14.0368 13.3696H20.2132C20.5787 13.3696 20.875 13.6659 20.875 14.0313V20.2078C20.875 20.5733 20.5787 20.8696 20.2132 20.8696H14.0368C13.6713 20.8696 13.375 20.5733 13.375 20.2078V14.0313ZM14.6985 14.6931V19.546H19.5515V14.6931H14.6985Z" fill="black"/>
<path fill-rule="evenodd" clip-rule="evenodd" d="M4 14.0313C4 13.6659 4.29628 13.3696 4.66176 13.3696H10.8382C11.2037 13.3696 11.5 13.6659 11.5 14.0313V20.2078C11.5 20.5733 11.2037 20.8696 10.8382 20.8696H4.66176C4.29628 20.8696 4 20.5733 4 20.2078V14.0313ZM5.32353 14.6931V19.546H10.1765V14.6931H5.32353Z" fill="black"/>
</svg>
