<svg width="24" height="24" viewBox="0 0 24 24" fill="none" xmlns="http://www.w3.org/2000/svg">
<path d="M11.4214 6.44187H12.5749C12.6805 6.44187 12.7668 6.52559 12.7668 6.62791V13.0302C12.7668 13.0907 12.738 13.1465 12.6876 13.1814L8.72358 15.9884C8.63724 16.0488 8.51734 16.0326 8.45499 15.9488L7.76913 15.0419C7.70438 14.9558 7.72357 14.8395 7.8099 14.7814L11.2296 12.3837V6.62791C11.2296 6.52559 11.3159 6.44187 11.4214 6.44187ZM6.15041 8.1907L2.3902 9.0814C2.2703 9.10931 2.15279 9.02094 2.15279 8.90233L2.13361 5.14652C2.13361 4.9907 2.31826 4.90233 2.44296 5L6.22236 7.8628C6.25092 7.88423 6.27267 7.91304 6.2851 7.94592C6.29753 7.9788 6.30013 8.01442 6.29262 8.04867C6.2851 8.08292 6.26777 8.11443 6.24261 8.13955C6.21746 8.16468 6.1855 8.18241 6.15041 8.1907ZM2.12881 15.193L3.48853 14.7395C3.53594 14.7238 3.58782 14.7266 3.63309 14.7475C3.67835 14.7684 3.7134 14.8056 3.73074 14.8512C3.7763 14.9698 3.82427 15.0861 3.87463 15.2023C4.30149 16.1814 4.913 17.0628 5.69477 17.8186C6.46787 18.5707 7.38409 19.1701 8.39264 19.5837C9.43743 20.0121 10.5605 20.232 11.6948 20.2302C12.8411 20.2302 13.9514 20.014 14.997 19.5837C16.0056 19.1701 16.9218 18.5707 17.6949 17.8186C18.4743 17.0628 19.0858 16.1814 19.515 15.2023C19.9543 14.1886 20.1794 13.0996 20.1769 12C20.1769 10.8884 19.9539 9.80931 19.5102 8.79536C19.0834 7.81629 18.4719 6.93489 17.6901 6.17908C16.917 5.42703 16.0008 4.82758 14.9922 4.41396C13.9514 3.98372 12.8387 3.76745 11.6924 3.76745C10.5461 3.76745 9.43581 3.98372 8.39024 4.41396C7.38169 4.82758 6.46548 5.42703 5.69238 6.17908C5.44777 6.41861 5.21756 6.66745 5.00653 6.93024L3.57247 5.84187C5.45976 3.50233 8.39743 1.99768 11.6972 2C17.4431 2.00233 22.057 6.52791 21.9995 12.1023C21.9419 17.5791 17.3496 22 11.6924 22C7.24395 22 3.45496 19.2651 2.0113 15.4349C1.97533 15.3372 2.02809 15.2279 2.12881 15.193Z" fill="#6D6E71"/>
</svg>
