<svg width="24" height="24" viewBox="0 0 24 24" fill="none" xmlns="http://www.w3.org/2000/svg">
<path d="M11.5371 7.5535H12.4599C12.5444 7.5535 12.6134 7.62047 12.6134 7.70233V12.8242C12.6134 12.8726 12.5904 12.9172 12.5501 12.9451L9.37886 15.1907C9.30979 15.239 9.21387 15.2261 9.16399 15.159L8.6153 14.4335C8.5635 14.3646 8.57886 14.2716 8.64792 14.2251L11.3837 12.307V7.70233C11.3837 7.62047 11.4527 7.5535 11.5371 7.5535ZM7.32033 8.95256L4.31216 9.66512C4.21624 9.68745 4.12223 9.61675 4.12223 9.52186L4.10688 6.51722C4.10688 6.39256 4.25461 6.32186 4.35437 6.4L7.37789 8.69024C7.40074 8.70738 7.41814 8.73043 7.42808 8.75674C7.43803 8.78304 7.44011 8.81154 7.4341 8.83894C7.42808 8.86634 7.41422 8.89154 7.39409 8.91164C7.37397 8.93174 7.3484 8.94593 7.32033 8.95256ZM4.10305 14.5544L5.19082 14.1916C5.22875 14.179 5.27025 14.1813 5.30647 14.198C5.34268 14.2147 5.37072 14.2445 5.38459 14.281C5.42104 14.3758 5.45941 14.4689 5.4997 14.5618C5.84119 15.3451 6.3304 16.0502 6.95582 16.6549C7.5743 17.2566 8.30727 17.7361 9.11411 18.067C9.94994 18.4097 10.8484 18.5856 11.7559 18.5842C12.6729 18.5842 13.5611 18.4112 14.3976 18.067C15.2045 17.7361 15.9374 17.2566 16.5559 16.6549C17.1794 16.0502 17.6686 15.3451 18.012 14.5618C18.3634 13.7509 18.5435 12.8797 18.5415 12C18.5415 11.1107 18.3631 10.2474 18.0081 9.43629C17.6667 8.65303 17.1775 7.94791 16.5521 7.34326C15.9336 6.74162 15.2006 6.26206 14.3937 5.93117C13.5611 5.58698 12.6709 5.41396 11.7539 5.41396C10.8369 5.41396 9.94865 5.58698 9.11219 5.93117C8.30535 6.26206 7.57239 6.74162 6.95391 7.34326C6.75822 7.53489 6.57404 7.73396 6.40522 7.94419L5.25797 7.0735C6.76781 5.20186 9.11794 3.99814 11.7578 4C16.3545 4.00186 20.0456 7.62233 19.9996 12.0818C19.9535 16.4633 16.2797 20 11.7539 20C8.19516 20 5.16397 17.8121 4.00904 14.7479C3.98027 14.6698 4.02247 14.5823 4.10305 14.5544Z" fill="black"/>
</svg>
