<svg width="13" height="15" viewBox="0 0 13 15" fill="none" xmlns="http://www.w3.org/2000/svg">
<path d="M1.83482 15.0001V12.7008H0.5V11.3047H1.83482V9.60079H0.5V7.91736H1.83482V0.916748H8.33482C9.25049 0.916748 10.005 1.10151 10.5982 1.47105C11.2044 1.8269 11.6558 2.32645 11.9524 2.96971C12.2619 3.61297 12.4167 4.35888 12.4167 5.20744C12.4167 6.06969 12.249 6.83613 11.9137 7.50676C11.5784 8.16371 11.1012 8.67695 10.4821 9.04649C9.87599 9.41602 9.15377 9.60079 8.31547 9.60079H3.67262V11.3047H7.73512V12.7008H3.67262V15.0001H1.83482ZM3.67262 7.91736H8.1994C8.92163 7.91736 9.49553 7.67784 9.92113 7.19882C10.3467 6.71979 10.5595 6.06285 10.5595 5.22797C10.5595 4.66683 10.4692 4.19465 10.2887 3.81143C10.121 3.42821 9.86309 3.13395 9.51488 2.92865C9.16667 2.70967 8.72817 2.60018 8.1994 2.60018H3.67262V7.91736Z" fill="#333333"/>
</svg>
