<svg width="300" height="86" viewBox="0 0 300 86" fill="none" xmlns="http://www.w3.org/2000/svg">
<mask id="mask0_2024_19765" style="mask-type:alpha" maskUnits="userSpaceOnUse" x="49" y="0" width="39" height="19">
<path d="M68.1795 18.9166C74.336 18.9166 79.3269 14.682 79.3269 9.45829C79.3269 4.23462 74.336 0 68.1795 0C62.0231 0 57.0322 4.23462 57.0322 9.45829C57.0322 14.682 62.0231 18.9166 68.1795 18.9166Z" fill="#12438F"/>
<path d="M82.0288 16.2108C85.0137 16.2108 87.4335 13.791 87.4335 10.806C87.4335 7.82104 85.0137 5.40125 82.0288 5.40125C79.0438 5.40125 76.624 7.82104 76.624 10.806C76.624 13.791 79.0438 16.2108 82.0288 16.2108Z" fill="#12438F"/>
<path d="M56.3517 16.8903C60.0829 16.8903 63.1076 13.8656 63.1076 10.1344C63.1076 6.40316 60.0829 3.37842 56.3517 3.37842C52.6204 3.37842 49.5957 6.40316 49.5957 10.1344C49.5957 13.8656 52.6204 16.8903 56.3517 16.8903Z" fill="#12438F"/>
</mask>
<g mask="url(#mask0_2024_19765)">
<path d="M68.162 18.9138C74.3185 18.9138 79.3093 14.6792 79.3093 9.45548C79.3093 4.23181 74.3185 -0.00280762 68.162 -0.00280762C62.0055 -0.00280762 57.0146 4.23181 57.0146 9.45548C57.0146 14.6792 62.0055 18.9138 68.162 18.9138Z" fill="#12438F"/>
<path d="M82.0229 16.2144C85.0079 16.2144 87.4277 13.7946 87.4277 10.8097C87.4277 7.8247 85.0079 5.40491 82.0229 5.40491C79.038 5.40491 76.6182 7.8247 76.6182 10.8097C76.6182 13.7946 79.038 16.2144 82.0229 16.2144Z" fill="#12438F"/>
<path d="M56.3458 16.8875C60.077 16.8875 63.1017 13.8628 63.1017 10.1316C63.1017 6.40035 60.077 3.37561 56.3458 3.37561C52.6146 3.37561 49.5898 6.40035 49.5898 10.1316C49.5898 13.8628 52.6146 16.8875 56.3458 16.8875Z" fill="#12438F"/>
</g>
<path d="M189 78.7636V41.2144L159 22.7635L129 38.978V78.7636H189Z" fill="white" fill-opacity="0.8"/>
<path d="M129 42.7639L60 42.7635V76.4169C60 77.713 61.025 78.7635 62.2893 78.7635H129V42.7639Z" fill="#EA7D18"/>
<mask id="mask1_2024_19765" style="mask-type:alpha" maskUnits="userSpaceOnUse" x="58" y="22" width="101" height="22">
<path d="M158.773 22.8824H90.5537L58.9561 43.8402H128.601L158.773 22.8824Z" fill="#12438F"/>
</mask>
<g mask="url(#mask1_2024_19765)">
<path d="M173.603 20.3033L81.8497 17.0791L54.1436 43.7689L134.405 47.3872L173.603 20.3033Z" fill="#12438F"/>
<path d="M99.2994 19.8861L61.1768 46.2541" stroke="white" stroke-opacity="0.08"/>
<path d="M105.654 19.8861L67.5322 46.2541" stroke="white" stroke-opacity="0.08"/>
<path d="M112.015 19.8861L73.8926 46.2541" stroke="white" stroke-opacity="0.08"/>
<path d="M118.358 19.8861L80.2354 46.2541" stroke="white" stroke-opacity="0.08"/>
<path d="M124.713 19.8861L86.5908 46.2541" stroke="white" stroke-opacity="0.08"/>
<path d="M131.068 19.8861L92.9463 46.2541" stroke="white" stroke-opacity="0.08"/>
<path d="M137.423 19.8861L99.3008 46.2541" stroke="white" stroke-opacity="0.08"/>
<path d="M143.778 19.8861L105.656 46.2541" stroke="white" stroke-opacity="0.08"/>
<path d="M150.133 19.8861L112.012 46.2541" stroke="white" stroke-opacity="0.08"/>
<path d="M156.481 19.8861L118.359 46.2541" stroke="white" stroke-opacity="0.08"/>
</g>
<path d="M76 43.7635H66V78.7635H76V43.7635Z" fill="#12438F"/>
<path d="M123 43.7635H113V78.7635H123V43.7635Z" fill="#12438F"/>
<path d="M164 47.7635H156V54.7635H164V47.7635Z" fill="#12438F"/>
<path d="M154.025 39.7635H142.975C142.437 39.7635 142 40.2113 142 40.7635C142 41.3158 142.437 41.7635 142.975 41.7635H154.025C154.563 41.7635 155 41.3158 155 40.7635C155 40.2113 154.563 39.7635 154.025 39.7635Z" fill="#12438F"/>
<path d="M174.025 39.7635H162.975C162.437 39.7635 162 40.2113 162 40.7635C162 41.3158 162.437 41.7635 162.975 41.7635H174.025C174.563 41.7635 175 41.3158 175 40.7635C175 40.2113 174.563 39.7635 174.025 39.7635Z" fill="#12438F"/>
<path d="M81 24.0712C81 23.349 81.4477 22.7635 82 22.7635C82.5523 22.7635 83 23.349 83 24.0712V39.7635H81V24.0712Z" fill="#5AA9FD"/>
<path d="M105 61.5986V10.5367C105 8.45285 106.709 6.76355 108.817 6.76355H146.661C148.77 6.76355 150.478 8.45285 150.478 10.5367V52.0317C150.478 54.1155 152.188 55.8049 154.296 55.8049H300" stroke="#EA7D18" stroke-width="10"/>
<path d="M105.5 67.7635C110.194 67.7635 114 63.958 114 59.2635C114 54.5691 110.194 50.7635 105.5 50.7635C100.806 50.7635 97 54.5691 97 59.2635C97 63.958 100.806 67.7635 105.5 67.7635Z" fill="#5AA9FD"/>
<path d="M101 43.7635H109V59.5703C109 61.8864 107.209 63.7635 105 63.7635C102.791 63.7635 101 61.8864 101 59.5703V43.7635Z" fill="#12438F"/>
<mask id="mask2_2024_19765" style="mask-type:alpha" maskUnits="userSpaceOnUse" x="0" y="53" width="50" height="33">
<path d="M44.3514 60.2222C48.2541 68.0274 39.1478 64.125 46.3027 69.9786C53.4576 75.8331 47.6036 83.638 41.7496 84.2889C35.8956 84.939 34.5946 81.0366 30.0416 82.3377C21.792 86.2699 11.8559 86.6354 6.28826 81.0435C4.12094 78.8671 -2.65599 73.7628 1.12643 67.2849C4.90879 60.8071 14.5421 65.2215 14.5421 65.2215C14.5421 65.2215 16.0723 60.1147 20.1145 57.4661C30.0414 50.9617 40.4488 52.4168 44.3514 60.2222Z" fill="#EA7D18"/>
</mask>
<g mask="url(#mask2_2024_19765)">
<path d="M44.3513 60.2215C48.2539 68.0266 39.1477 64.1241 46.3026 69.9778C53.4575 75.8323 47.6034 83.6379 41.7494 84.2881C35.8954 84.9382 34.5945 81.0358 30.0414 82.3368C21.7918 86.2691 4.13296 94.2273 1.12755 87.9227C-1.87781 81.6188 -0.0486797 53.8384 9.87824 47.334C19.8052 40.8295 40.4487 52.4161 44.3513 60.2215Z" fill="#EA7D18"/>
</g>
</svg>
