<svg width="92" height="70" viewBox="0 0 92 70" fill="none" xmlns="http://www.w3.org/2000/svg">
<g clip-path="url(#clip0_2099_19608)">
<mask id="mask0_2099_19608" style="mask-type:alpha" maskUnits="userSpaceOnUse" x="8" y="0" width="63" height="65">
<path d="M19.4076 1.35724C26.083 -1.0909 34.1165 -0.165521 39.3396 5.29671C44.7348 10.939 45.9707 19.1247 43.1023 25.9321L32.8362 36.0712C26.0586 38.7905 18.0429 37.3009 12.6475 31.6587C7.42369 26.1955 6.98229 17.7708 9.61041 11.0312C9.84621 10.4267 10.6121 10.2947 11.0581 10.7612L21.4695 21.6493C21.8217 22.0176 22.401 22.026 22.7634 21.6681L29.4928 15.0218C29.8552 14.6639 29.8635 14.0752 29.5113 13.7069L19.0999 2.81872C18.6539 2.35236 18.8057 1.57791 19.4076 1.35724Z" fill="#12438F"/>
<path d="M57.7454 61.9729L31.9771 35.0248L42.2432 24.8856L68.0115 51.8337C70.7665 54.7148 70.7017 59.3202 67.8668 62.1201C65.0319 64.92 60.5003 64.8541 57.7454 61.9729Z" fill="#12438F"/>
</mask>
<g mask="url(#mask0_2099_19608)">
<path d="M19.4094 1.35758C26.0848 -1.09046 34.1183 -0.165088 39.3414 5.29705C44.7366 10.9394 45.9724 19.1251 43.104 25.9324L32.8379 36.0716C26.0604 38.7909 18.0446 37.3014 12.6493 31.6591C7.4254 26.196 6.98399 17.7712 9.61211 11.0317C9.84791 10.4271 10.6139 10.2952 11.0599 10.7616L21.4712 21.6497C21.8234 22.0181 22.4027 22.0264 22.7651 21.6685L29.4946 15.0223C29.857 14.6643 29.8652 14.0756 29.5131 13.7073L19.1017 2.81916C18.6557 2.3528 18.8074 1.57835 19.4094 1.35758Z" fill="#5AA9FD"/>
<path d="M56.9321 61.2678L28.6587 31.5485L38.9248 21.4093L67.2211 51.1524C69.9639 54.0355 69.8961 58.6334 67.0663 61.4282C64.2262 64.2331 59.6848 64.1612 56.9321 61.2678Z" fill="#EA7D18"/>
<path d="M85.7878 21.9125H59.1487V71.2246H85.7878V21.9125Z" fill="#5AA9FD"/>
</g>
<path d="M17.8633 4.49069C24.5387 2.04256 32.5721 2.96793 37.7951 8.43016C43.1905 14.0724 44.4263 22.2581 41.5579 29.0655L31.2917 39.2047C24.5143 41.924 16.4984 40.4344 11.1032 34.7921C5.87925 29.329 5.43785 20.9044 8.06597 14.1648C8.30177 13.5601 9.06773 13.4283 9.51371 13.8946L19.9251 24.7827C20.2773 25.1511 20.8566 25.1595 21.219 24.8016L27.9484 18.1554C28.3108 17.7975 28.3191 17.2087 27.9669 16.8404L17.5555 5.95227C17.1096 5.48581 17.2613 4.71146 17.8633 4.49069Z" fill="#12438F"/>
<path d="M33.5544 27.5059C33.5544 29.3851 32.0554 30.9085 30.2062 30.9085C28.3571 30.9085 26.8582 29.3851 26.8582 27.5059C26.8582 25.6267 28.3571 24.1033 30.2062 24.1033C32.0554 24.1033 33.5544 25.6267 33.5544 27.5059Z" fill="#12438F" stroke="white"/>
<mask id="mask1_2099_19608" style="mask-type:alpha" maskUnits="userSpaceOnUse" x="30" y="28" width="43" height="44">
<path d="M60.3069 69.4099L30.4224 38.157L40.6885 28.0178L70.573 59.2707C73.328 62.1518 73.2632 66.7572 70.4283 69.557C67.5934 72.3569 63.0618 72.291 60.3069 69.4099Z" fill="#12438F"/>
</mask>
<g mask="url(#mask1_2099_19608)">
<path d="M58.1126 67.1151L30.4224 38.157L40.6885 28.0178L68.3787 56.9759C71.1337 59.857 71.0689 64.4624 68.234 67.2622C65.3991 70.0621 60.8675 69.9962 58.1126 67.1151Z" fill="#EA7D18"/>
<path d="M21.2806 88.5755C43.2205 88.5755 61.0063 70.2897 61.0063 47.733C61.0063 25.1763 43.2205 6.89053 21.2806 6.89053C-0.659283 6.89053 -18.4451 25.1763 -18.4451 47.733C-18.4451 70.2897 -0.659283 88.5755 21.2806 88.5755Z" fill="#12438F"/>
</g>
</g>
<defs>
<clipPath id="clip0_2099_19608">
<rect width="92" height="70" fill="white"/>
</clipPath>
</defs>
</svg>
