<svg width="100" height="71" viewBox="0 0 100 71" fill="none" xmlns="http://www.w3.org/2000/svg">
<path d="M89.8826 44.0678H6.40796V71H89.8826V44.0678Z" fill="url(#paint0_linear_2099_19625)" fill-opacity="0.4"/>
<path d="M49.3228 56.5878C49.3228 56.5878 50.2116 56.5878 45.2969 56.5878C40.3814 56.5878 36.3972 52.4707 36.3972 47.3922C36.3972 42.3131 46.7522 33.7644 51.0429 34.0532C55.3336 34.3422 61.9124 47.3922 61.9124 47.3922L53.9036 48.4882L49.3228 56.5878Z" fill="#12438F"/>
<path d="M48.6933 56.5883C53.6084 56.5883 57.5928 52.4711 57.5928 47.3922C57.5928 42.3134 53.6084 38.1962 48.6933 38.1962C43.7782 38.1962 39.7937 42.3134 39.7937 47.3922C39.7937 52.4711 43.7782 56.5883 48.6933 56.5883Z" fill="#5AA9FD"/>
<path d="M18.7326 54.9422C18.7326 54.9422 19.5783 54.9422 14.9024 54.9422C10.2264 54.9422 6.43652 51.0253 6.43652 46.1941C6.43652 41.3622 10.2264 37.4457 14.9024 37.4457C19.5783 37.4457 18.7326 54.9422 18.7326 54.9422Z" fill="#5AA9FD"/>
<path d="M18.1264 54.9423C22.8022 54.9423 26.5927 51.0256 26.5927 46.194C26.5927 41.3625 22.8022 37.4458 18.1264 37.4458C13.4506 37.4458 9.66016 41.3625 9.66016 46.194C9.66016 51.0256 13.4506 54.9423 18.1264 54.9423Z" fill="#12438F"/>
<path d="M88.8501 48.5455C88.8501 48.5455 89.4851 48.5455 85.9771 48.5455C82.4691 48.5455 79.6255 45.6071 79.6255 41.9823C79.6255 38.3576 80.9009 28.4148 95.5185 33.3325C99.0265 33.3325 88.8501 48.5455 88.8501 48.5455Z" fill="#12438F"/>
<path d="M88.3936 48.5462C91.9016 48.5462 94.7453 45.6078 94.7453 41.983C94.7453 38.3582 91.9016 35.4197 88.3936 35.4197C84.8857 35.4197 82.042 38.3582 82.042 41.983C82.042 45.6078 84.8857 48.5462 88.3936 48.5462Z" fill="#5AA9FD"/>
<mask id="mask0_2099_19625" style="mask-type:alpha" maskUnits="userSpaceOnUse" x="0" y="0" width="100" height="50">
<path d="M59.4657 0.0115532C61.9186 0.175011 83.5659 4.87523 93.914 7.14375C97.1633 7.85608 99.5465 10.6381 99.7052 13.9904C99.9502 19.1812 100.181 27.0874 99.7901 33.9344C99.6238 36.8498 97.5404 39.2386 94.7412 39.9796C94.7412 39.9796 92.9274 33.6727 86.2754 34.8933C79.6234 36.114 81.2163 44.585 81.2163 44.585L59.9761 48.9349C59.9761 48.9349 59.5245 35.7654 48.5804 36.2253C37.6357 36.6853 38.9042 49.8562 38.9042 49.8562C38.9042 49.8562 9.62512 50.2519 3.75521 47.792C-2.1147 45.3329 0.211647 34.1545 1.98377 31.9188C3.75521 29.683 14.2778 21.7463 16.0499 20.293C17.8221 18.8399 33.7062 5.28826 34.7934 3.97245C35.8806 2.65664 56.2279 -0.204181 59.4657 0.0115532Z" fill="#C4C4C4"/>
</mask>
<g mask="url(#mask0_2099_19625)">
<path d="M62.6781 -0.61189C64.6356 -0.226552 99.1353 -6.0736 99.5793 -4.26873C100.023 -2.46379 107.34 42.146 107.34 42.146C107.34 42.146 61.5703 46.3377 60.1307 47.1208C58.6904 47.9032 58.6904 34.7123 48.7227 36.2774C38.7544 37.8423 39.8642 50.2864 38.311 50.698C31.555 52.4865 9.62512 50.2505 3.75521 47.7914C-2.1147 45.3322 0.211647 34.1534 1.98377 31.9177C3.75521 29.682 14.2778 21.7452 16.0499 20.2921C17.8221 18.8388 30.8229 5.6138 34.7934 3.97142C42.6311 0.729539 58.1376 -1.50576 62.6781 -0.61189Z" fill="#EA7D18"/>
<path d="M78.3528 11.26L88.835 13.0323V22.7978H78.3528V11.26Z" fill="#5AA9FD"/>
<path d="M84.9883 52.9119C84.9883 58.8936 57.7284 47.7858 52.5126 47.7858C47.2968 47.7858 25.1931 43.5492 25.1931 43.5492C41.8887 24.7442 50.8801 13.4123 65.7105 -7.9235C65.7105 -7.9235 84.9883 46.9295 84.9883 52.9119Z" fill="#EA7D18"/>
<path d="M66.9202 4.39529L76.3939 6.31776V41.0479L66.9202 42.5334V4.39529Z" fill="#12438F"/>
<path d="M18.9462 12.6254C31.2471 7.4686 40.2644 6.50014 54.2225 6.92843L43.3372 21.8491C28.8865 19.3378 25.2971 20.5173 11.7373 21.8491L18.9462 12.6254Z" fill="#12438F"/>
<path d="M34.5553 10.4362L34.2837 18.9499C25.0317 17.8514 16.5966 19.7738 7.61694 23.0695C7.61694 23.0695 15.0482 10.1594 17.7749 10.1594C20.5008 10.1594 34.5553 10.4362 34.5553 10.4362Z" fill="#5AA9FD"/>
<path d="M31.8363 32.957C31.8363 32.957 29.9622 40.0464 31.2916 39.8228C32.0313 39.6985 39.7144 37.7918 43.4057 40.9747C46.3526 43.5153 43.0178 50.3679 38.2002 52.8235C23.6236 60.2547 15.2768 56.7363 12.505 56.7363C6.26566 56.7363 -5.32706 40.8532 -5.32706 35.0498C-5.32706 29.2465 -7.69035 30.1312 -1.45096 30.1312C4.78843 30.1312 31.8363 32.957 31.8363 32.957Z" fill="#5AA9FD"/>
<path d="M44.358 38.7247C44.358 38.7247 38.3205 54.9284 34.2905 54.9284C30.2597 54.9284 26.3987 52.1654 26.3987 48.3369C26.3987 44.5084 31.297 32.6827 31.297 32.6827L44.358 38.7247Z" fill="#12438F"/>
<path d="M1.90094 28.0139C6.25462 30.76 14.6048 31.4543 21.4929 31.3092C17.2781 34.9976 16.4844 37.8617 16.5952 43.668C9.15572 44.8647 -1.09183 43.1183 -2.18042 38.175L1.90094 28.0139Z" fill="#12438F"/>
<path d="M31.841 34.6279C31.841 36.1014 29.28 37.2959 26.1203 37.2959C22.9612 37.2959 19.9821 37.6162 20.1867 35.6951C20.3913 33.774 26.6478 28.6512 30.8865 28.6512C35.1253 28.6512 31.841 33.1543 31.841 34.6279Z" fill="#12438F"/>
</g>
<path d="M56.5851 6.8654L64.6917 7.94559V24.018L45.7437 25.2387L56.5851 6.8654Z" fill="#12438F"/>
<path d="M28.2911 35.0745C29.6842 35.0745 30.8135 33.9347 30.8135 32.5287C30.8135 31.1227 29.6842 29.9829 28.2911 29.9829C26.8981 29.9829 25.7688 31.1227 25.7688 32.5287C25.7688 33.9347 26.8981 35.0745 28.2911 35.0745Z" fill="#EA7D18"/>
<path d="M28.2973 33.943C29.0712 33.943 29.6986 33.3098 29.6986 32.5287C29.6986 31.7476 29.0712 31.1144 28.2973 31.1144C27.5234 31.1144 26.896 31.7476 26.896 32.5287C26.896 33.3098 27.5234 33.943 28.2973 33.943Z" fill="#5AA9FD"/>
<path d="M24.3715 36.7715C25.1454 36.7715 25.7728 36.1383 25.7728 35.3572C25.7728 34.5761 25.1454 33.9429 24.3715 33.9429C23.5976 33.9429 22.9702 34.5761 22.9702 35.3572C22.9702 36.1383 23.5976 36.7715 24.3715 36.7715Z" fill="#EA7D18"/>
<path d="M53.1783 47.1643C53.1783 49.5405 51.2693 51.4672 48.9142 51.4672C46.5598 51.4672 44.6509 49.5405 44.6509 47.1643C44.6509 44.7873 46.5598 42.8613 48.9142 42.8613C51.2693 42.8613 53.1783 44.7873 53.1783 47.1643Z" fill="#12438F"/>
<defs>
<linearGradient id="paint0_linear_2099_19625" x1="48.1453" y1="44.0678" x2="48.1453" y2="71" gradientUnits="userSpaceOnUse">
<stop stop-color="#12438F" stop-opacity="0.16"/>
<stop offset="1" stop-color="#12438F" stop-opacity="0"/>
</linearGradient>
</defs>
</svg>
