<svg width="65" height="85" viewBox="0 0 65 85" fill="none" xmlns="http://www.w3.org/2000/svg">
<g clip-path="url(#clip0_2099_19679)">
<mask id="mask0_2099_19679" style="mask-type:luminance" maskUnits="userSpaceOnUse" x="-25" y="-18" width="103" height="103">
<path d="M78 -18H-25V85H78V-18Z" fill="white"/>
</mask>
<g mask="url(#mask0_2099_19679)">
<path d="M60.0662 55.835H5.05786V132H60.0662V55.835Z" fill="url(#paint0_linear_2099_19679)"/>
<mask id="mask1_2099_19679" style="mask-type:alpha" maskUnits="userSpaceOnUse" x="5" y="4" width="56" height="57">
<path d="M5.16016 21.7815C5.16016 20.7134 5.72805 19.7258 6.65125 19.1885L32.7527 4L58.854 19.1885C59.7772 19.7258 60.3452 20.7133 60.3452 21.7815V56.8172C60.3452 59.0264 58.5543 60.8172 56.3452 60.8172H9.16015C6.95095 60.8172 5.16016 59.0264 5.16016 56.8172V21.7815Z" fill="#5AA9FD"/>
</mask>
<g mask="url(#mask1_2099_19679)">
<path d="M5.16016 21.7815C5.16016 20.7134 5.72805 19.7258 6.65125 19.1885L32.7527 4L58.854 19.1885C59.7772 19.7258 60.3452 20.7133 60.3452 21.7815V56.8172C60.3452 59.0264 58.5543 60.8172 56.3452 60.8172H9.16015C6.95095 60.8172 5.16016 59.0264 5.16016 56.8172V21.7815Z" fill="#5AA9FD"/>
<path d="M19 52.2495C19 43.9574 25.3399 37.2354 33.1604 37.2354C40.981 37.2354 47.3208 43.9574 47.3208 52.2495C47.3208 60.5415 34.1044 74.2702 33.1604 74.2702C32.2164 74.2702 19 60.5415 19 52.2495Z" fill="#12438F"/>
<path d="M26.6252 44.0657C26.6252 40.1636 29.5512 37.0003 33.1607 37.0003C36.7702 37.0003 39.6963 40.1636 39.6963 44.0657C39.6963 47.9679 33.5964 54.4284 33.1607 54.4284C32.725 54.4284 26.6252 47.9679 26.6252 44.0657Z" fill="#EA7D18"/>
</g>
<path d="M4 20.6695L32.477 4L60.9541 20.6695" stroke="#EA7D18" stroke-width="7" stroke-linecap="round"/>
<path d="M32.7871 19V25.7418" stroke="white" stroke-width="1.5" stroke-linecap="round"/>
<path d="M38.5586 22.5273C39.1203 23.5094 39.4413 24.6468 39.4413 25.8593C39.4413 29.571 36.4324 32.5799 32.7207 32.5799C29.0089 32.5799 26 29.571 26 25.8593C26 24.6468 26.321 23.5094 26.8828 22.5273" stroke="white" stroke-width="1.5" stroke-linecap="round"/>
</g>
</g>
<defs>
<linearGradient id="paint0_linear_2099_19679" x1="30.7779" y1="54.7284" x2="31.3312" y2="89.487" gradientUnits="userSpaceOnUse">
<stop offset="0.0583427" stop-opacity="0.05"/>
<stop offset="1" stop-opacity="0"/>
</linearGradient>
<clipPath id="clip0_2099_19679">
<rect width="65" height="85" fill="white"/>
</clipPath>
</defs>
</svg>
