<svg width="150" height="204" viewBox="0 0 150 204" fill="none" xmlns="http://www.w3.org/2000/svg">
<g opacity="0.5">
<path opacity="0.6" fill-rule="evenodd" clip-rule="evenodd" d="M150 134.673C150 69.6649 90.9158 5.12965 56.8284 0C58.9873 6.86525 60.4783 15.5722 60.4783 26.8342C60.4783 62.1343 0 84.7356 0 141.914C0 159.347 5.7506 189.247 23.6898 204C26.6129 192.669 33.2371 182.627 42.5193 175.458C51.8016 168.288 63.2146 164.396 74.9613 164.396C86.7079 164.396 98.121 168.288 107.403 175.458C116.686 182.627 123.31 192.669 126.233 204C132.332 198.986 150 178.188 150 134.673Z" fill="#CFCFCF"/>
<path fill-rule="evenodd" clip-rule="evenodd" d="M74.8537 164.621C95.2809 164.621 112.175 179.45 115.999 183.732C124.943 173.739 129.878 160.815 129.862 147.429C129.851 137.365 127.059 127.499 121.791 118.911C116.522 110.324 108.982 103.347 99.9957 98.7453C99.9957 98.7453 80.4978 87.6471 74.6116 78.4003C69.5871 86.6636 61.7937 92.285 51.1638 97.5882C51.1638 97.5882 40.3499 104.376 35.9644 108.754C30.8534 113.826 26.7985 119.853 24.0323 126.49C21.2662 133.127 19.8432 140.243 19.8452 147.429C19.8452 161.487 25.1796 174.311 33.941 183.992C37.0099 180.511 54.4167 164.611 74.8537 164.611V164.621Z" fill="#CFCFCF"/>
</g>
</svg>
